<?xml version="1.0" standalone="no"?>
<!DOCTYPE svg PUBLIC "-//W3C//DTD SVG 1.1//EN" "http://www.w3.org/Graphics/SVG/1.1/DTD/svg11.dtd" >
<svg xmlns="http://www.w3.org/2000/svg">
<metadata>Generated by IcoMoon</metadata>
<defs>
<font id="icons" horiz-adv-x="1024">
<font-face units-per-em="1024" ascent="960" descent="-64" />
<missing-glyph horiz-adv-x="1024" />
<glyph unicode="&#x20;" horiz-adv-x="512" d="" />
<glyph unicode="&#xe900;" glyph-name="facebook" d="M512 960c-281.6 0-512-230.811-512-515.085 0-257.028 187.392-470.362 432.128-508.915v359.838h-130.048v149.077h130.048v113.607c0 129.028 76.288 199.968 193.536 199.968 55.808 0 114.176-9.767 114.176-9.767v-126.972h-64.512c-63.488 0-83.456-39.582-83.456-80.193v-96.643h142.336l-23.040-149.077h-119.296v-359.838c120.649 19.132 230.511 80.939 309.756 174.263s122.645 212.015 122.372 334.652c0 284.273-230.4 515.085-512 515.085z" />
<glyph unicode="&#xe901;" glyph-name="victory" d="M398.421 959.992c0 0-71.808 1.707-112.299-43.349-40.448-45.013-34.261-119.851-34.261-119.851s71.808-1.835 112.299 43.264c40.491 45.099 34.261 119.893 34.261 119.893v0.043zM625.493 959.992c0 0-6.187-74.88 34.261-119.936s112.213-43.264 112.213-43.264c0 0 6.272 74.795-34.176 119.893-40.491 45.013-112.299 43.307-112.299 43.307zM147.755 909.090c0 0-47.531-56.32-40.576-117.717 6.955-61.355 65.707-104.533 65.707-104.533l0.299 0.427c12.373-10.752 58.027-46.72 108.288-41.515 58.837 6.101 101.248 66.773 101.248 66.773s-52.992 50.688-111.787 44.587c-33.536-3.499-61.355-24.533-79.36-42.112 12.373 22.229 25.771 54.955 21.888 89.6-6.955 61.397-65.707 104.448-65.707 104.448v0.043zM876.203 909.090c0 0-58.752-43.179-65.707-104.533-3.968-34.688 9.387-67.328 21.888-89.557-18.048 17.621-45.867 38.613-79.36 42.112-58.795 6.101-111.829-44.672-111.829-44.672s42.453-60.672 101.248-66.773c50.219-5.205 95.915 30.891 108.288 41.557l0.299-0.427c0 0 58.752 43.221 65.707 104.576 6.997 61.44-40.533 117.717-40.533 117.717zM32.768 677.794c0 0-29.099-68.693-4.864-125.013 24.235-56.405 92.672-79.104 92.672-79.104l0.299 0.768c15.36-4.907 70.741-19.755 115.2 5.248 51.968 29.312 68.779 102.315 68.779 102.315s-67.541 25.515-119.595-3.797c-25.173-14.165-41.941-38.528-52.693-59.947 3.84 23.723 4.608 53.333-7.040 80.384-24.192 56.363-92.757 79.147-92.757 79.147zM991.147 677.794c0 0-68.523-22.784-92.757-79.147-11.605-26.965-10.837-56.661-7.040-80.384-10.752 21.419-27.52 45.781-52.693 59.947-52.053 29.312-119.595 3.797-119.595 3.797s16.811-73.045 68.821-102.4c44.416-24.96 99.797-10.155 115.2-5.248l0.256-0.768c0 0 68.48 22.784 92.672 79.147 24.277 56.405-4.864 125.056-4.864 125.056zM278.869 449.954c0 0-70.144-15.829-99.456-69.547-14.123-25.856-16.043-55.723-14.379-79.787-8.661 22.272-22.955 47.915-46.379 64.512-48.981 34.645-118.656 16.384-118.656 16.384s9.643-74.411 58.624-109.013c48.939-34.688 118.699-16.469 118.699-16.469l-0.128 0.683c15.36 4.267 70.101 22.272 95.147 68.267 29.269 53.675 6.528 124.928 6.528 124.928v0.043zM745.045 449.954c0 0-22.699-71.296 6.571-125.013 25.088-45.952 79.829-64 95.189-68.267l-0.128-0.64c0 0 69.76-18.261 118.699 16.384 48.981 34.645 58.624 109.099 58.624 109.099s-69.803 18.261-118.741-16.384c-23.381-16.64-37.675-42.24-46.293-64.555 1.707 24.107-0.256 53.973-14.379 79.872-29.312 53.675-99.541 69.461-99.541 69.461v0.043zM335.275 303.607c0 0-65.579-30.635-83.627-89.429-10.24-33.536-2.901-68.523 5.333-92.8-14.549 20.779-37.803 46.635-69.803 56.661-56.619 17.749-117.888-21.461-117.888-21.461s30.464-67.968 87.083-85.76c49.28-15.403 99.627 10.923 112.512 18.347 25.216-27.435 55.381-45.867 87.637-58.368-11.051-8.96-20.821-19.669-27.819-33.536-0.908-1.468-1.72-2.995-2.432-4.565l-0.384-0.683c-3.177-7.347-4.142-15.462-2.778-23.351s4.998-15.211 10.458-21.065c5.97-6.366 14.012-10.394 22.684-11.362s17.405 1.182 24.633 6.071c6.179 4.186 11.034 10.044 13.995 16.896 3.627 8.405 13.653 16.64 38.997 24.149 20.096 5.973 48.043 10.027 78.080 14.208 30.037-4.181 57.984-8.235 78.080-14.208 25.301-7.509 35.371-15.787 38.997-24.149h0.085c2.987-6.912 7.851-12.8 13.952-16.896 6.046-4.096 13.175-6.293 20.48-6.315 5.018 0.021 9.984 1.058 14.588 3.055 4.608 1.993 8.759 4.902 12.207 8.55 5.525 5.815 9.203 13.141 10.56 21.047 1.361 7.906 0.341 16.038-2.923 23.369h0.043l-0.341 0.683c-0.742 1.664-1.6 3.273-2.56 4.821-6.767 12.941-16.226 24.29-27.733 33.28 32.256 12.501 62.421 30.933 87.637 58.411 12.8-7.424 63.147-33.877 112.512-18.432 56.619 17.749 87.168 85.76 87.168 85.76s-61.269 39.168-117.888 21.419c-32-10.027-55.339-35.883-69.888-56.661 8.235 24.32 15.616 59.392 5.333 92.843-18.048 58.88-83.627 89.472-83.627 89.472s-36.267-64.853-18.219-123.648c5.12-16.555 13.995-30.635 24.064-42.667l-0.085-0.043c-38.613-35.157-102.4-48.427-169.643-57.813l-12.8-1.792-12.8 1.792c-67.243 9.387-131.072 22.741-169.728 57.899 10.069 12.032 19.072 26.112 24.149 42.667 18.048 58.837-18.304 123.605-18.304 123.605z" />
<glyph unicode="&#xe903;" glyph-name="medal" horiz-adv-x="768" d="M229.291 921.58l-37.547-48.341c-4.589-5.904-10.78-10.362-17.835-12.843l-57.003-20.395 112.384 81.579zM229.291 921.58c14.507 18.773 37.205 29.696 60.928 30.080 8.028 0.105 16.026-1.003 23.723-3.285h0.085l57.856-16.64c7.253-2.347 15.488-2.347 22.699 0l57.941 16.64c31.403 9.259 65.28-1.707 84.651-26.752l37.589-48.384c4.437-5.547 10.368-10.368 17.792-12.843l57.003-20.395c14.882-5.252 27.849-14.851 37.21-27.555 9.365-12.704 14.699-27.927 15.313-43.698l1.877-60.16c0-8.064 2.389-15.36 7.253-21.547l34.475-49.877 0.085-0.085c18.517-25.856 18.517-61.867 0-87.68l-0.085-0.128-34.688-50.177c-4.42-6.217-6.874-13.619-7.040-21.248l-1.877-60.16c-0.61-15.765-5.939-30.985-15.296-43.686-9.353-12.706-22.31-22.306-37.184-27.567l-420.309 575.148zM229.291 921.58v0zM64.427 768.833v-0.043l-1.877-60.16c-0.166-7.628-2.619-15.030-7.040-21.248l-0.043-0.085-34.56-49.92c-8.351-13.393-12.703-28.893-12.544-44.675s4.822-31.191 13.44-44.413l34.432-49.751c4.809-6.14 7.369-13.747 7.253-21.547l1.877-60.16v-0.043c0.853-31.701 21.931-60.288 52.48-71.253l37.973-12.885-2.987-8.021-107.648-291.285c-1.272-3.554-1.456-7.411-0.529-11.072 0.927-3.665 2.923-6.967 5.734-9.493 5.973-5.248 14.592-6.571 21.931-3.285 27.028 12.565 57.932 13.918 85.955 3.767 28.023-10.155 50.886-30.989 63.592-57.954 3.2-6.912 10.24-10.965 17.707-10.965h0.555c8.491 0.853 15.36 5.632 17.792 12.885l0.043 0.213 107.691 293.12 1.109 3.157 2.987 1.493 1.877 0.896 0.512 0.256 0.555 0.213c7.437 2.381 15.432 2.381 22.869 0l57.899-16.64c31.445-9.259 65.28 1.707 84.693 26.795l42.965 55.552 5.163-14.165 90.539-246.656-12.715 0.768c-21.414 1.463-42.901-1.536-63.1-8.806-20.194-7.27-38.665-18.654-54.234-33.434l-9.131-8.789-4.437 11.904-48.64 130.773c-4.139 10.837-15.36 15.616-24.747 11.904-10.539-4.224-15.744-15.573-12.16-24.405l0.085-0.256 66.475-181.803c2.475-6.827 9.685-12.288 17.835-13.099h0.555c3.703 0.009 7.334 1.054 10.479 3.012 3.14 1.958 5.675 4.757 7.313 8.081 12.736 26.923 35.605 47.71 63.616 57.83s58.884 8.751 85.888-3.814l-635.477 757.505zM64.384 768.833v0zM64.384 768.833c0.61 15.765 5.938 30.985 15.294 43.689s22.311 22.306 37.186 27.565l-52.48-71.253zM699.861 11.328c3.584-1.591 7.552-2.121 11.43-1.532s7.505 2.278 10.458 4.86c2.803 2.522 4.796 5.82 5.722 9.472s0.747 7.501-0.516 11.051l-109.653 300.203 8.021 2.773 24.32 8.32 50.219-335.147zM699.861 11.328v0zM200.192 303.893l-9.173 11.691-5.163-13.952-90.283-243.115h23.211c17.877 0 35.584-2.688 52.309-8.747 20.779-8.107 39.296-18.688 54.187-33.408l9.173-9.088 4.48 12.16 79.957 217.131h-11.947c-2.731 0-5.419-0.256-7.68-0.469h-0.171c-2.053-0.252-4.118-0.393-6.187-0.427-12.047 0.034-23.932 2.765-34.786 7.991s-20.398 12.821-27.934 22.217l-29.995 38.016zM560.555 592.791c0 96.512-79.616 175.317-176.853 175.317-97.195 0-176.811-78.805-176.811-175.317s79.616-175.319 176.811-175.319c97.237 0 176.853 78.805 176.853 175.361v-0.043zM363.947 639.127c0 11.093 8.363 19.499 19.755 19.499s19.755-8.405 19.755-19.499v-92.757c0-11.093-8.363-19.5-19.755-19.5-2.596-0.085-5.183 0.354-7.602 1.301s-4.621 2.377-6.47 4.198c-1.849 1.826-3.306 4.009-4.283 6.415s-1.454 4.988-1.4 7.585v92.757z" />
<glyph unicode="&#xe904;" glyph-name="peace" d="M581.32 527.089c2.315-0.312 4.719-0.445 7.213-0.445 16.829 0 35.172 7.524 54.628 26.579 16.607 16.206 36.864 56.32 27.871 112.64-7.569 46.748-43.409 143.983-212.235 224.746 0.935-17.631-4.096-34.193-10.952-49.241-7.391-16.161-17.853-32.679-28.004-48.618l-0.757-1.202c-31.432-49.419-65.625-104.181-52.135-183.162l214.372-81.297zM581.32 527.089c16.161 109.256-0.223 189.306-31.388 270.737-1.87 5.079-4.746 9.731-8.45 13.68-3.7 3.948-8.161 7.112-13.112 9.305-4.946 2.193-10.289 3.369-15.698 3.458-5.414 0.090-10.792-0.908-15.81-2.935l-0.312-0.134c-9.893-4.305-17.737-12.272-21.887-22.231s-4.283-21.138-0.374-31.195c28.984-75.954 42.385-145.274 23.597-247.986l83.434 7.302zM581.32 527.089v0zM497.842 519.787c-9.198-2.944-18.753-4.621-28.405-4.986-28.316 0-51.022 9.127-67.851 24.487-17.007 15.583-29.473 38.778-34.638 69.053l130.894-88.554zM64.868 292.192l17.809 13.312-0.534 0.712-0.579 0.668-3.517 3.962c-10.24 11.576-17.363 19.679-22.929 31.254-5.966 12.377-10.596 30.23-10.596 61.395v267.131c0 17.052 5.521 27.603 12.199 33.97 6.901 6.545 17.096 10.552 29.384 10.552 12.377 0 22.528-4.007 29.429-10.552 6.678-6.367 12.243-16.918 12.243-33.97v-185.656c-4.844-3.401-9.189-7.462-12.911-12.065-9.24-11.602-15.602-25.226-18.566-39.758-6.99-32.59 0.712-73.327 37.087-111.75l93.407-104.403c3.631-4.047 8.075-7.284 13.043-9.496s10.345-3.352 15.783-3.344c5.437 0.009 10.812 1.166 15.772 3.393 4.96 2.231 9.395 5.476 13.013 9.537 6.993 7.827 10.859 17.956 10.859 28.449s-3.866 20.622-10.859 28.449l-0.089 0.089-102.088 113.397c-5.427 6.166-8.391 14.113-8.325 22.328s3.157 16.117 8.681 22.194h0.089c3.35 3.477 7.659 5.877 12.377 6.901 4.319 0.801 14.291 1.024 29.562-14.826l102.266-114.020c42.83-45.056 77.69-99.729 77.69-173.679v-178.087h-168.426v140.867l-4.319 5.877c-42.839 57.892-85.818 115.681-128.935 173.368l-14.692 19.723-4.051 5.476-1.336 1.781-0.089 0.089-17.853-13.267zM841.817 387.468l-0.089-0.134-102.133-113.352c-6.981-7.822-10.841-17.942-10.841-28.427s3.86-20.605 10.841-28.427c3.611-4.069 8.041-7.324 13-9.563 4.96-2.235 10.333-3.397 15.774-3.41 5.441-0.009 10.823 1.126 15.792 3.339s9.416 5.449 13.045 9.501l0.134 0.178 93.273 104.181c36.374 38.467 44.077 79.249 37.131 111.794-2.97 14.532-9.332 28.156-18.566 39.758-3.718 4.617-8.063 8.695-12.911 12.11v185.612c0 17.052 5.521 27.603 12.199 33.97 6.901 6.545 17.052 10.552 29.384 10.552s22.528-4.007 29.384-10.552c6.678-6.367 12.243-16.918 12.243-33.97v-267.131c0-31.165-4.63-48.974-10.596-61.395-5.565-11.576-12.733-19.679-22.929-31.254l-3.517-3.962-0.579-0.668-0.534-0.712v-0.045l-0.089-0.089-0.312-0.356-1.069-1.425-4.051-5.476-14.692-19.723c-43.004-57.767-85.985-115.556-128.935-173.368l-4.319-5.877v-140.867h-168.426v178.087c0 73.951 34.861 128.668 77.69 173.679l0.223 0.267 0.223 0.223 101.821 113.53c15.271 15.894 25.244 15.583 29.562 14.826 6.233-1.113 11.13-5.387 12.555-6.945 5.481-6.099 8.539-13.998 8.597-22.203 0.058-8.201-2.889-16.139-8.285-22.319v0.045z" />
<glyph unicode="&#xe905;" glyph-name="phone" horiz-adv-x="1229" d="M1024 857.6v-358.4l204.8 179.2-204.8 179.2zM345.6 960c-10.184 0-19.952-4.046-27.153-11.247s-11.247-16.969-11.247-27.153v-947.2c0-10.184 4.046-19.953 11.247-27.151 7.201-7.204 16.969-11.249 27.153-11.249h537.6c10.184 0 19.953 4.045 27.151 11.249 7.204 7.199 11.249 16.968 11.249 27.151v947.2c0 10.184-4.045 19.951-11.249 27.153-7.199 7.201-16.968 11.247-27.151 11.247h-537.6zM0 704v-76.8h76.8v76.8h-76.8zM153.6 704v-76.8h76.8v76.8h-76.8zM384 883.2h460.8v-870.4h-460.8v870.4zM473.6 806.4c-5.21 0.269-10.419-0.525-15.312-2.333s-9.367-4.594-13.15-8.186c-3.783-3.592-6.795-7.917-8.853-12.71s-3.12-9.955-3.12-15.172c0-5.217 1.061-10.379 3.12-15.172s5.070-9.118 8.853-12.71c3.783-3.592 8.257-6.377 13.15-8.186s10.103-2.602 15.312-2.333h281.6c5.207-0.269 10.419 0.525 15.314 2.333 4.89 1.808 9.364 4.594 13.148 8.186s6.794 7.917 8.852 12.71c2.058 4.793 3.118 9.955 3.118 15.172s-1.060 10.379-3.118 15.172c-2.058 4.793-5.069 9.118-8.852 12.71s-8.259 6.377-13.148 8.186c-4.895 1.808-10.107 2.602-15.314 2.333h-281.6zM204.8 448l-204.8-179.2 204.8-179.2v358.4zM998.4 294.4v-76.8h76.8v76.8h-76.8zM1152 294.4v-76.8h76.8v76.8h-76.8z" />
<glyph unicode="&#xe906;" glyph-name="chemistry" horiz-adv-x="1117" d="M1024 866.909c0 12.345-4.906 24.184-13.633 32.913s-20.568 13.633-32.912 13.633c-12.344 0-24.185-4.904-32.912-13.633s-13.633-20.568-13.633-32.913c0-12.345 4.906-24.184 13.633-32.913s20.568-13.633 32.912-13.633c12.344 0 24.185 4.904 32.912 13.633s13.633 20.568 13.633 32.913zM1070.545 866.909c0-24.689-9.807-48.367-27.266-65.825s-41.137-27.266-65.825-27.266c-24.688 0-48.365 9.808-65.825 27.266s-27.266 41.136-27.266 65.825c0 24.689 9.807 48.367 27.266 65.825s41.137 27.266 65.825 27.266c24.688 0 48.365-9.808 65.825-27.266s27.266-41.136 27.266-65.825zM139.636 657.455c-18.517 0-36.276 7.356-49.369 20.449s-20.449 30.852-20.449 49.369c0 18.517 7.356 36.276 20.449 49.369s30.852 20.449 49.369 20.449c18.517 0 36.275-7.356 49.369-20.449s20.449-30.852 20.449-49.369c0-18.517-7.356-36.276-20.449-49.369s-30.852-20.449-49.369-20.449zM139.636 587.636c37.034 0 72.551 14.712 98.738 40.899s40.899 61.704 40.899 98.738c0 37.034-14.712 72.551-40.899 98.738s-61.704 40.899-98.738 40.899c-37.034 0-72.551-14.712-98.738-40.899s-40.899-61.704-40.899-98.738c0-37.034 14.712-72.551 40.899-98.738s61.704-40.899 98.738-40.899zM674.909 727.273c-101.516 0-165.702-35.84-204.66-79.453-13.777-15.36-23.738-31.046-31.046-45.149-42.31 12.381-102.865 16.896-162.444-22.807-72.378-48.268-101.795-114.828-110.685-167.796-33.095-11.264-63.595-29.054-89.693-52.317-42.729-38.447-76.381-96.535-76.381-176.64 0-93.463 38.493-158.394 96.815-197.958 55.436-37.655 124.090-49.152 182.458-49.152h581.818c53.062 0 115.526 19.735 165.423 58.833 51.153 40.076 90.577 101.935 90.577 184.18 0 77.452-27.834 139.171-72.937 181.388-28.681 26.61-63.744 45.363-101.795 54.458 7.168 58.647-7.028 123.206-37.841 177.152-42.682 74.612-120.785 135.261-229.609 135.261zM510.092 527.872l0.838 2.979c3.025 10.892 9.309 33.187 28.719 54.924 19.921 22.342 58.089 48.407 135.261 48.407 69.818 0 119.715-37.562 148.759-88.39 30.255-52.876 34.257-113.85 17.873-152.25l-27.648-64.791h70.47c36.026 0 70.842-12.567 96.209-36.305 24.669-23.133 43.427-59.485 43.427-113.431 0-49.245-22.621-85.644-54.924-110.871-33.466-26.252-75.729-39.052-107.985-39.052h-581.818c-48.361 0-96.023 9.914-130.234 33.094-31.372 21.364-55.948 56.646-55.948 120.972 0 51.2 20.48 84.852 45.568 107.427 26.391 23.785 58.601 35.607 78.289 38.772l39.052 6.377v39.564c0 32.023 13.684 87.971 72.378 127.069 46.080 30.767 97.14 8.844 112.361-0.652l51.945-32.582 17.408 58.74zM312.785 278.575c0 80.524 43.148 130.141 113.105 130.141 57.158 0 100.864-39.005 104.541-92.905h-49.059c-4.841 28.439-26.717 47.197-55.482 47.197-37.888 0-61.44-32.303-61.44-84.48 0-52.224 23.552-84.62 61.626-84.62 28.858 0 50.595 17.455 55.436 44.73h49.105c-4.189-53.527-46.545-90.391-104.727-90.391-69.818 0-113.105 49.617-113.105 130.327zM558.545 278.575c0 80.384 43.66 130.141 111.895 130.141 68.561 0 111.523-49.943 111.523-130.141 0-80.337-42.822-130.327-111.523-130.327-68.887 0-111.895 49.99-111.895 130.327zM732.393 278.575c0 51.852-24.111 84.62-61.952 84.62-37.702 0-62.138-32.768-62.138-84.62 0-51.665 23.971-84.806 62.138-84.806 37.841 0 61.952 33.094 61.952 84.806zM804.305 201.495c0 30.627 22.156 50.781 55.855 50.781 32.628 0 53.574-17.594 53.574-44.87 0-18.758-9.542-33.978-35.747-54.458l-17.082-15.36v-2.886h55.11v-33.792h-108.87v29.975l41.519 37.935c21.271 18.897 26.345 25.553 26.345 34.583 0 9.216-6.889 15.546-16.617 15.546-10.333 0-17.361-6.982-17.361-17.222v-0.977h-36.724v0.745z" />
<glyph unicode="&#xe907;" glyph-name="recycle2" d="M512 960c-49.92 0-94.549-33.28-124.416-85.76l-113.323-198.4 68.992-40.96 112 197.12c20.181 35.541 40.533 46.080 56.661 46.080 16.213 0 36.523-10.539 56.661-46.080l123.179-216.32-62.805-39.68 197.077-122.88v245.76l-66.56-40.96-123.136 216.32c-29.824 52.48-74.411 85.76-124.331 85.76zM273.024 592.64l-197.077-122.88 60.373-37.12-109.653-193.28c-29.696-52.309-36.309-110.251-11.093-154.88 25.259-44.629 76.373-66.56 135.509-66.56h242.645v81.92h-242.645c-40.789 0-60.16 13.44-67.755 26.88-7.509 13.44-9.045 36.139 11.093 71.68l108.373 192 70.229-43.52v245.76zM901.205 404.48l-66.56-42.24 94.891-163.84c20.309-35.669 18.603-58.24 11.093-71.68-7.552-13.44-26.965-26.88-67.755-26.88h-203.221v81.92l-197.12-122.88 197.12-122.88v81.92h203.221c59.136 0 110.251 21.931 135.467 66.56 25.259 44.629 18.773 102.4-11.093 154.88v1.28l-96.043 163.84z" />
<glyph unicode="&#xe908;" glyph-name="learn" horiz-adv-x="1293" d="M619.412 932.235h0.054c3.207 1.020 6.656 1.020 9.863 0l577.32-183.565c4.112-0.66 7.842-2.785 10.509-5.982 2.98-3.574 4.635-8.066 4.689-12.719v-0.755l0.054-0.808v-489.366l13.096-7.869c18.701-11.318 31.528-32.121 31.528-56.482 0-6.845-3.503-20.426-11.803-39.882-7.815-18.486-18.432-39.020-29.373-58.476-7.276-13.043-14.552-25.384-21.073-36.056-6.467 10.671-13.797 23.013-21.127 36.002-10.806 18.987-20.609 38.524-29.373 58.53-8.246 19.456-11.749 33.037-11.749 39.882 0 24.36 12.827 45.218 31.528 56.482l13.043 7.869v464.305l-35.139-11.156-522.078-166.373c-3.223-1.032-6.694-1.032-9.917 0l-579.853 184.751c-3.622 1.209-6.759 3.553-8.947 6.683-2.439 3.442-3.748 7.557-3.748 11.776s1.31 8.333 3.748 11.776c2.187 3.13 5.324 5.474 8.947 6.683l579.8 184.751zM294.481 246.153v229.917l282.301-89.952c30.968-9.927 64.264-9.927 95.232 0l282.301 89.952v-229.917l-6.737-0.647c-20.588-2.317-49.745-6.845-84.615-15.899-65.536-16.923-151.444-49.853-238.538-113.556-71.642 52.585-152.602 91.114-238.592 113.556-29.984 7.836-60.524 13.366-91.352 16.546z" />
<glyph unicode="&#xe909;" glyph-name="create-3" horiz-adv-x="945" d="M380.063 859.224h20.676l7.838 19.102c12.997 31.744 35.84 50.924 64.039 50.924s51.042-19.18 64.039-50.924l7.838-19.102h243.2c10.122 0 19.495-3.151 27.254-8.468h-158.247v-140.052h-368.127v140.052h-158.287c7.759 5.356 17.132 8.468 27.254 8.468h222.523zM825.62 819.958v20.677c6.302-8.113 10.082-18.314 10.082-29.42v-717.668c0-11.067-3.781-21.268-10.082-29.42v755.832zM794.86 54.004h20.086c-8.011-5.53-17.518-8.483-27.254-8.468h-630.153c-9.733 0-19.237 2.95-27.254 8.468h664.575zM119.612 84.803v-20.677c-6.56 8.405-10.122 18.759-10.122 29.42v717.668c0 11.106 3.781 21.268 10.082 29.42v-20.677l0.039-735.155zM646.577 819.958v30.799h-107.402v4.214c0 37.415-30.011 65.772-66.56 65.772s-66.56-28.357-66.56-65.772v-4.214h-107.44v-131.584h348.001v30.799l-0.039 69.986zM415.311 287.358l21.504-21.031 225.319 220.318 6.617-6.498-231.975-226.777-124.454 121.738 6.577 6.498 96.412-94.247z" />
<glyph unicode="&#xe90a;" glyph-name="group" horiz-adv-x="1365" d="M463.246 960c-52.85 0-98.645-21.618-127.886-54.5-29.298-32.882-42.78-74.866-42.78-116.167s13.483-83.285 42.78-116.167c29.241-32.939 75.093-54.5 127.886-54.5s98.645 21.618 127.886 54.5c29.241 32.882 42.78 74.866 42.78 116.167s-13.54 83.285-42.78 116.167c-29.241 32.939-75.093 54.5-127.886 54.5zM902.087 960c-52.793 0-98.645-21.618-127.886-54.5s-42.78-74.866-42.78-116.167c0-41.301 13.54-83.285 42.78-116.167 29.241-32.939 75.093-54.5 127.886-54.5 52.85 0 98.645 21.618 127.943 54.5 29.241 32.882 42.724 74.866 42.724 116.167s-13.483 83.285-42.724 116.167c-29.298 32.939-75.093 54.5-127.943 54.5zM463.246 862.492c28.444 0 43.577-8.932 54.955-21.732s18.204-31.801 18.204-51.428c0-19.627-6.827-38.628-18.204-51.428s-26.51-21.732-54.955-21.732c-28.444 0-43.577 8.932-54.955 21.732s-18.204 31.801-18.204 51.428c0 19.627 6.827 38.628 18.204 51.428s26.51 21.732 54.955 21.732zM902.087 862.492c28.444 0 43.577-8.932 54.955-21.732s18.204-31.801 18.204-51.428c0-19.627-6.827-38.628-18.204-51.428s-26.51-21.732-54.955-21.732c-28.444 0-43.577 8.932-54.955 21.732s-18.204 31.801-18.204 51.428c0 19.627 6.827 38.628 18.204 51.428s26.51 21.732 54.955 21.732zM243.826 618.667c-44.715 0-84.423-18.546-109.625-46.876-24.017-27.5-37.078-62.875-36.693-99.385 0-29.184 13.369-57.003 30.379-82.375-74.866-41.756-127.886-118.898-127.886-210.204h97.508c-0.090 19.24 3.633 38.303 10.955 56.092s18.097 33.951 31.703 47.553c13.606 13.596 29.772 24.366 47.565 31.681s36.858 11.031 56.096 10.934c36.82 0.102 72.3-13.801 99.248-38.889 26.948-25.094 43.349-59.489 45.875-96.222-62.013-70.474-96.267-161.104-96.37-254.976h97.508c0 162.133 130.446 292.58 292.58 292.58s292.58-130.446 292.58-292.58h97.508c0 97.621-36.693 186.596-96.37 254.976 2.526 36.733 18.927 71.128 45.875 96.222 26.948 25.088 62.43 38.992 99.248 38.889 19.24 0.097 38.303-3.618 56.098-10.934 17.789-7.316 33.957-18.085 47.565-31.681 13.602-13.602 24.377-29.764 31.698-47.553s11.048-36.853 10.957-56.092h97.508c0 89.6-49.55 167.424-122.084 209.806 16.498 25.145 24.576 54.044 24.576 82.773 0.404 36.514-12.658 71.896-36.693 99.385-25.202 28.331-64.91 46.876-109.625 46.876s-84.423-18.546-109.625-46.876c-23.996-27.509-37.035-62.883-36.636-99.385 0-28.729 8.078-57.628 24.576-82.773-49.22-28.626-86.909-73.535-106.553-126.976-19.428 12.863-39.976 23.967-61.383 33.166 29.736 35.931 45.961 81.135 45.852 127.772 0 47.445-15.588 95.516-48.924 132.949-33.223 37.547-85.163 62.123-146.148 62.123s-112.868-24.633-146.204-62.123c-33.28-37.433-48.868-85.504-48.868-132.949 0-45.454 15.303-91.022 45.852-127.772-21.527-9.25-42.184-20.406-61.724-33.337-21.32 54.261-60.946 99.362-112.014 127.488 17.067 25.429 30.379 53.248 30.379 82.432 0 35.214-11.492 71.111-36.636 99.385-25.202 28.331-64.967 46.876-109.625 46.876zM243.826 521.159c20.309 0 29.355-5.86 36.636-14.108 7.339-8.249 12.117-21.106 12.117-34.702s-4.779-26.396-12.117-34.645c-7.282-8.249-16.327-14.108-36.636-14.108s-29.355 5.86-36.693 14.108c-7.339 8.249-12.060 21.106-12.060 34.702s4.779 26.396 12.060 34.645c7.282 8.249 16.384 14.108 36.693 14.108zM682.667 521.159c36.58 0 57.799-11.947 73.216-29.355s24.292-42.439 24.292-68.21c0-25.771-8.818-50.802-24.292-68.153s-36.636-29.355-73.216-29.355c-36.58 0-57.799 11.947-73.216 29.355s-24.292 42.439-24.292 68.153c0 25.714 8.818 50.859 24.292 68.267s36.636 29.298 73.216 29.298zM1121.508 521.159c20.309 0 29.355-5.86 36.693-14.108s12.060-21.106 12.060-34.702c0-13.596-4.779-26.396-12.060-34.645s-16.384-14.108-36.693-14.108c-20.309 0-29.355 5.86-36.636 14.108-7.339 8.249-12.117 21.106-12.117 34.702s4.779 26.396 12.117 34.645c7.282 8.249 16.327 14.108 36.636 14.108z" />
<glyph unicode="&#xe90b;" glyph-name="1" horiz-adv-x="1422" d="M962.731 732.435c-31.573 0-52.508-20.935-52.508-52.508v-544.827c0-26.283 20.935-52.508 52.508-52.508 10.468 89.202 80.498 166.286 175.104 166.286 94.549 0 160.199-76.117 170.667-170.667h56.889c31.573 0 56.889 23.097 56.889 54.727v262.544c0 47.218-42.667 105.017-42.667 105.017l-114.916 177.209c-26.283 31.63-42.098 52.565-78.791 52.565l-223.175 2.162zM1024.057 618.657h170.667l117.532-175.616c10.468-15.758 24.633-36.124 24.633-51.941h-312.889l0.057 227.557zM284.501 163.544c-66.731 0-113.778-47.104-113.778-113.778s47.104-113.778 113.778-113.778c66.674 0 113.778 47.104 113.778 113.778s-47.218 113.778-113.778 113.778zM1137.835 163.544c-66.674 0-113.778-47.104-113.778-113.778s47.104-113.778 113.778-113.778c66.674 0 113.778 47.104 113.778 113.778s-47.161 113.778-113.778 113.778zM511.999 49.766c0 66.674 47.104 113.778 113.778 113.778s113.778-47.104 113.778-113.778c0-66.674-47.104-113.778-113.778-113.778-66.617 0-113.778 47.104-113.778 113.778zM145.237 618.657c-19.713 15.982-33.517 38.095-39.217 62.824s-2.97 50.654 7.757 73.652l63.374 135.964c10.726 22.994 28.83 41.743 51.435 53.267s48.413 15.161 73.322 10.334l230.684-44.715c9.114-1.757 17.979-4.623 26.396-8.533l210.091-97.963c9.751-4.549 18.506-10.974 25.776-18.908 7.265-7.934 12.897-17.222 16.572-27.333 3.681-10.111 5.33-20.848 4.853-31.596-0.472-10.749-3.055-21.299-7.606-31.048l-141.767-315.166c-4.551-9.751-10.974-18.506-18.91-25.771-7.936-7.27-17.22-12.902-27.329-16.577-10.115-3.675-20.85-5.325-31.596-4.853-10.752 0.472-21.301 3.055-31.051 7.606l-210.034 97.964c-8.443 3.926-16.372 8.875-23.609 14.734l-179.143 166.116zM85.333 277.333c-31.573 0-28.444-25.316-28.444-56.889v-85.333c0-31.573-3.129-54.727 28.444-54.727h28.444v140.060h682.667v-140.060l12.231 2.219c31.573 0 44.658 20.935 44.658 52.508v85.333c0 31.573-25.316 56.889-56.889 56.889h-711.112z" />
<glyph unicode="&#xe90c;" glyph-name="trash" d="M372.352 960l-46.507-85.333h-325.845v-85.333h85.333l42.667-768c6.656-51.2 50.176-85.333 107.435-85.333h551.936c57.301 0 101.973 34.133 108.629 85.333l42.667 768h85.333v85.333h-325.803l-46.549 85.333h-279.296zM170.667 789.333h682.667l-42.667-768h-597.333l-42.667 768zM341.333 661.333l31.019-405.333c0-28.245 25.515-64 56.917-64h40.064v469.333h-128zM554.667 661.333v-469.333h50.432c31.403 0 46.507 35.755 46.507 64l31.061 405.333h-128z" />
<glyph unicode="&#xe90d;" glyph-name="formwork" horiz-adv-x="1073" d="M195.048 813.714c0 12.933 5.138 25.335 14.282 34.48s21.547 14.282 34.48 14.282c12.933 0 25.335-5.138 34.48-14.282s14.282-21.547 14.282-34.48v-397.897l-97.524-40.96v438.857zM487.619 911.238c0 12.932 5.14 25.335 14.282 34.48s21.548 14.282 34.48 14.282c12.932 0 25.337-5.137 34.48-14.282s14.282-21.547 14.282-34.48v-633.905l-97.524 48.469v585.435zM780.19 813.714c0 12.933 5.14 25.335 14.282 34.48s21.548 14.282 34.48 14.282c12.932 0 25.337-5.138 34.48-14.282s14.282-21.547 14.282-34.48v-633.905h-97.524v633.905zM0 716.19c0 12.933 5.137 25.335 14.282 34.48s21.547 14.282 34.48 14.282h975.238c12.932 0 25.337-5.138 34.48-14.282s14.282-21.547 14.282-34.48c0-12.933-5.14-25.335-14.282-34.48s-21.548-14.282-34.48-14.282h-975.238c-12.932 0-25.335 5.138-34.48 14.282s-14.282 21.547-14.282 34.48zM0 521.143c0 12.933 5.137 25.335 14.282 34.48s21.547 14.282 34.48 14.282h975.238c12.932 0 25.337-5.138 34.48-14.282s14.282-21.547 14.282-34.48c0-12.933-5.14-25.335-14.282-34.48s-21.548-14.282-34.48-14.282h-975.238c-12.932 0-25.335 5.138-34.48 14.282s-14.282 21.547-14.282 34.48zM97.524 228.571h97.524v-97.524h-97.524v97.524zM146.286 33.524h97.524v-97.524h-97.524v97.524zM390.095 131.048h97.524v-97.524h-97.524v97.524zM682.667 33.524h97.524v-97.524h-97.524v97.524zM877.714 82.286h97.524v-97.524h-97.524v97.524z" />
<glyph unicode="&#xe90e;" glyph-name="bricks" horiz-adv-x="1229" d="M0 960h102.4v-358.4h358.4v358.4h102.4v-409.6c0-13.579-5.396-26.602-14.996-36.204s-22.625-14.996-36.204-14.996h-460.8c-13.579 0-26.602 5.394-36.204 14.996s-14.996 22.625-14.996 36.204v409.6zM665.6 960h102.4v-358.4h358.4v358.4h102.4v-409.6c0-13.579-5.396-26.602-14.996-36.204s-22.625-14.996-36.204-14.996h-460.8c-13.578 0-26.604 5.394-36.204 14.996s-14.996 22.625-14.996 36.204v409.6zM0 396.8h102.4v-358.4h358.4v358.4h102.4v-409.6c0-13.578-5.396-26.604-14.996-36.204s-22.625-14.996-36.204-14.996h-460.8c-13.579 0-26.602 5.396-36.204 14.996s-14.996 22.625-14.996 36.204v409.6zM665.6 396.8h102.4v-358.4h358.4v358.4h102.4v-409.6c0-13.578-5.396-26.604-14.996-36.204s-22.625-14.996-36.204-14.996h-460.8c-13.578 0-26.604 5.396-36.204 14.996s-14.996 22.625-14.996 36.204v409.6z" />
<glyph unicode="&#xe90f;" glyph-name="facade" horiz-adv-x="1293" d="M0 690.526h862.316v-107.789h-862.316v107.789zM0 367.158h377.263v-107.789h-377.263v107.789zM323.368 960h107.789v-323.368h-107.789v323.368zM592.842 636.632h107.789v-269.474h-107.789v269.474zM862.316 960h107.789v-323.368h-107.789v323.368z" />
<glyph unicode="&#xe910;" glyph-name="roller" horiz-adv-x="931" d="M46.545 960c-27.927 0-46.545-18.618-46.545-46.545v-279.273c0-27.927 18.618-46.545 46.545-46.545h698.182c27.927 0 46.545 18.618 46.545 46.545v93.091h46.545v-232.727h-372.364c-50.874 0-93.091-42.217-93.091-93.091v-93.091c-27.927 0-46.545-18.618-46.545-46.545v-279.273c0-27.927 18.618-46.545 46.545-46.545h93.091c27.927 0 46.545 18.618 46.545 46.545v279.273c0 27.927-18.618 46.545-46.545 46.545v93.091h372.364c50.874 0 93.091 42.217 93.091 93.091v232.727c0 50.874-42.217 93.091-93.091 93.091h-46.545v93.091c0 27.927-18.618 46.545-46.545 46.545h-698.182zM93.091 866.909h605.091v-186.182h-605.091v186.182z" />
<glyph unicode="&#xe911;" glyph-name="flag" d="M42.667 960h85.333v-981.333h-85.333v981.333zM896 960h85.333v-981.333h-85.333v981.333zM0 21.333h170.667v-85.333h-170.667v85.333zM853.333 21.333h170.667v-85.333h-170.667v85.333zM42.667 874.667h938.667v-85.333h-938.667v85.333zM42.667 234.667h896v-85.333h-896v85.333z" />
<glyph unicode="&#xe912;" glyph-name="tractor" horiz-adv-x="1229" d="M103.168 960v-675.994c-56.166-32.41-103.168-93.542-103.168-161.792 0-102.349 85.197-186.214 189.030-186.214h567.194c103.834 0 189.030 83.917 189.030 186.163-0.215 32.87-9.364 65.065-26.47 93.133l130.816 2.304v-95.437c0-102.195 75.366-186.163 179.2-186.163v76.8c-52.736 0-102.4 57.395-102.4 109.363v377.037h-76.8v-192.307l-176.384 1.485 71.987 177.51v101.734h-188.979v139.622c0 26.317 20.582 46.592 47.258 46.592v93.082c-77.722 0-141.773-63.078-141.773-139.674v-139.622h-61.747l-141.875 372.378h-354.918zM189.030 866.918h203.571l106.342-279.296h-309.914v279.296zM189.030 494.541h657.92l-78.95-186.163h-578.97v186.163zM189.030 215.245h567.194c52.787 0 94.515-41.114 94.515-93.082s-41.728-93.082-94.515-93.082h-567.194c-52.736 0-94.515 41.114-94.515 93.082s41.779 93.082 94.515 93.082zM189.030 168.704c-12.544 0-24.576-4.864-33.382-13.619s-13.824-20.582-13.824-32.922c0-12.339 4.966-24.166 13.824-32.922 8.908-8.771 20.907-13.686 33.408-13.686s24.5 4.915 33.408 13.686c4.368 4.296 7.838 9.421 10.206 15.073s3.588 11.72 3.588 17.848c0 6.129-1.22 12.196-3.588 17.848s-5.838 10.778-10.206 15.073c-8.925 8.75-20.934 13.645-33.434 13.619zM378.112 168.704c-12.503 0.036-24.515-4.859-33.434-13.619-4.362-4.301-7.826-9.426-10.191-15.078s-3.582-11.715-3.582-17.843c0-6.129 1.218-12.191 3.582-17.843s5.829-10.778 10.191-15.078c8.908-8.771 20.907-13.686 33.408-13.686s24.5 4.915 33.408 13.686c4.368 4.296 7.838 9.421 10.206 15.073s3.588 11.72 3.588 17.848c0 6.129-1.22 12.196-3.588 17.848s-5.838 10.778-10.206 15.073c-8.912 8.74-20.9 13.629-33.382 13.619zM567.142 168.704c-12.503 0.036-24.515-4.859-33.434-13.619-4.362-4.301-7.828-9.426-10.189-15.078-2.365-5.652-3.584-11.715-3.584-17.843s1.219-12.191 3.584-17.843c2.36-5.652 5.827-10.778 10.189-15.078 8.909-8.786 20.92-13.711 33.434-13.711s24.525 4.925 33.434 13.711c4.367 4.296 7.839 9.421 10.204 15.073 2.371 5.652 3.589 11.72 3.589 17.848s-1.219 12.196-3.589 17.848c-2.365 5.652-5.837 10.778-10.204 15.073-8.924 8.75-20.936 13.645-33.434 13.619zM756.173 168.704c-12.503 0.036-24.515-4.859-33.434-13.619-4.362-4.301-7.828-9.426-10.189-15.078-2.365-5.652-3.584-11.715-3.584-17.843s1.219-12.191 3.584-17.843c2.36-5.652 5.827-10.778 10.189-15.078 8.909-8.786 20.92-13.711 33.434-13.711s24.525 4.925 33.434 13.711c4.367 4.296 7.839 9.421 10.204 15.073 2.371 5.652 3.589 11.72 3.589 17.848s-1.219 12.196-3.589 17.848c-2.365 5.652-5.837 10.778-10.204 15.073-8.924 8.75-20.936 13.645-33.434 13.619z" />
<glyph unicode="&#xe913;" glyph-name="pipe" d="M0 960v-341.333h85.333v42.667h256c11.316 0 22.168-4.495 30.17-12.497s12.497-18.854 12.497-30.17v-426.667c0-117.333 96-213.333 213.333-213.333h341.333v-42.667h85.333v341.333h-85.333v-42.667h-256c-11.315 0-22.17 4.497-30.17 12.497s-12.497 18.854-12.497 30.17v426.667c0 117.333-96 213.333-213.333 213.333h-341.333v42.667h-85.333zM85.333 832h341.333c71.211 0 128-56.789 128-128v-213.333h-85.333v170.667c0 46.635-38.699 85.333-85.333 85.333h-298.667v85.333zM469.333 405.333h85.333v-170.667c0-46.635 38.699-85.333 85.333-85.333h298.667v-85.333h-341.333c-71.211 0-128 56.789-128 128v213.333zM341.333 490.667h341.333v-128h-341.333v128z" />
<glyph unicode="&#xe914;" glyph-name="stonks" d="M885.504 960c-13.824 0-24.405-10.667-24.405-24.576s10.581-24.576 24.405-24.576h22.741l-274.005-276.907-243.115 244.949c-2.193 2.324-4.839 4.176-7.773 5.442s-6.097 1.919-9.293 1.919c-3.196 0-6.358-0.653-9.293-1.919s-5.58-3.117-7.774-5.442l-268.331-267.051c-2.31-2.228-4.147-4.9-5.402-7.854s-1.901-6.131-1.901-9.341c0-3.21 0.646-6.386 1.901-9.341s3.092-5.626 5.402-7.854c2.181-2.347 4.821-4.218 7.758-5.499s6.105-1.94 9.309-1.94c3.203 0 6.372 0.66 9.309 1.94s5.577 3.152 7.758 5.499l251.264 249.856 243.115-244.949c9.771-9.813 25.173-9.813 34.133 0l291.925 294.101v-22.955c0-13.909 10.539-24.576 24.363-24.576s24.405 10.667 24.405 24.576v81.92c0.009 4.931-1.455 9.752-4.207 13.842s-6.669 7.264-11.238 9.112c-2.88 1.011-5.905 1.558-8.96 1.621h-82.091zM813.141 558.592c-3.234 0.047-6.443-0.559-9.434-1.779-2.995-1.221-5.709-3.032-7.987-5.326s-4.070-5.023-5.269-8.024c-1.203-3.002-1.783-6.214-1.715-9.446v-573.44c0-13.909 10.581-24.576 24.405-24.576h146.347c13.824 0 24.363 10.667 24.363 24.576v573.44c0.068 3.228-0.512 6.437-1.711 9.436-1.195 2.999-2.982 5.726-5.257 8.019s-4.988 4.105-7.974 5.329c-2.987 1.223-6.191 1.833-9.421 1.792h-146.347zM23.637 537.259c-3.251 0.009-6.47-0.654-9.452-1.948s-5.666-3.189-7.882-5.57c-2.215-2.381-3.915-5.193-4.993-8.26s-1.509-6.323-1.268-9.566v-3.285c0-13.099 11.392-23.765 25.173-23.765s24.448 11.477 23.595 25.387v3.285c0 13.909-11.349 23.765-25.173 23.765v-0.043zM292.736 476.672c-3.229 0.043-6.432-0.567-9.421-1.792s-5.7-3.034-7.973-5.329c-2.273-2.291-4.062-5.022-5.259-8.017-1.197-2.999-1.778-6.208-1.71-9.438v-491.52c0-13.909 10.539-24.576 24.363-24.576h146.347c13.824 0 24.405 10.667 24.405 24.576v491.52c0.068 3.23-0.512 6.438-1.711 9.438-1.195 2.995-2.982 5.726-5.257 8.017-2.274 2.295-4.988 4.105-7.974 5.329s-6.191 1.835-9.421 1.792h-146.389zM317.141 427.52h97.579v-442.368h-97.579v442.368zM552.917 312.832c-3.23 0.043-6.434-0.567-9.421-1.792s-5.7-3.034-7.974-5.329c-2.27-2.291-4.062-5.022-5.257-8.017-1.199-2.999-1.779-6.208-1.711-9.438v-327.68c0-13.909 10.539-24.576 24.363-24.576h146.347c13.867 0 24.405 10.667 24.405 24.576v327.68c0.068 3.23-0.512 6.438-1.711 9.438-1.195 2.995-2.982 5.726-5.257 8.017-2.274 2.295-4.988 4.105-7.974 5.329s-6.191 1.835-9.421 1.792h-146.389zM577.323 263.68h97.579v-278.528h-97.579v278.528zM32.555 230.912c-3.229 0.043-6.433-0.567-9.421-1.792s-5.7-3.034-7.973-5.329c-2.273-2.291-4.062-5.022-5.259-8.017-1.197-2.999-1.779-6.208-1.71-9.438v-245.76c0-13.909 10.539-24.576 24.363-24.576h146.347c13.824 0 24.405 10.667 24.405 24.576v245.76c0.069 3.23-0.514 6.443-1.713 9.446s-2.992 5.73-5.27 8.026c-2.278 2.291-4.995 4.105-7.988 5.325s-6.202 1.826-9.434 1.779h-146.347zM56.96 181.76h97.579v-196.608h-97.579v196.608z" />
<glyph unicode="&#xe915;" glyph-name="recycle" d="M512 960c-49.92 0-94.549-33.28-124.416-85.76l-113.323-198.4 68.992-40.96 112 197.12c20.181 35.541 40.533 46.080 56.661 46.080 16.213 0 36.523-10.539 56.661-46.080l123.179-216.32-62.805-39.68 197.077-122.88v245.76l-66.56-40.96-123.136 216.32c-29.824 52.48-74.411 85.76-124.331 85.76zM273.024 592.64l-197.077-122.88 60.373-37.12-109.653-193.28c-29.696-52.309-36.309-110.251-11.093-154.88 25.259-44.629 76.373-66.56 135.509-66.56h242.645v81.92h-242.645c-40.789 0-60.16 13.44-67.755 26.88-7.509 13.44-9.045 36.139 11.093 71.68l108.373 192 70.229-43.52v245.76zM901.205 404.48l-66.56-42.24 94.891-163.84c20.309-35.669 18.603-58.24 11.093-71.68-7.552-13.44-26.965-26.88-67.755-26.88h-203.221v81.92l-197.12-122.88 197.12-122.88v81.92h203.221c59.136 0 110.251 21.931 135.467 66.56 25.259 44.629 18.773 102.4-11.093 154.88v1.28l-96.043 163.84z" />
<glyph unicode="&#xe916;" glyph-name="helmet" horiz-adv-x="1229" d="M36.866-64h1155.070c20.89 0 36.864 16.384 36.864 37.837v162.611c-0.092 8.161-2.76 16.082-7.608 22.646-4.854 6.559-11.648 11.428-19.425 13.911l-34.406 10.086c-6.144 1.28-9.83 7.578-9.83 13.875v166.707c0 209.306-116.736 402.176-298.598 495.462v11.366c0 49.152-39.322 89.498-87.245 89.498h-314.571c-47.923 0-87.245-40.346-87.245-89.498v-11.366c-181.862-94.566-298.598-286.208-298.598-495.462v-166.707c0.007-3.041-0.937-6.011-2.7-8.489s-4.256-4.342-7.131-5.335l-34.406-10.138c-7.872-2.319-14.772-7.142-19.651-13.742s-7.471-14.607-7.382-22.815v-162.611c0-21.453 17.203-37.837 36.864-37.837zM73.73 107.469l7.373 2.56c18.304 5.745 34.331 17.116 45.802 32.497 11.471 15.375 17.803 33.976 18.096 53.161v166.707c0 167.68 87.245 322.765 224.87 408.474v-172.698c0-21.453 15.974-37.837 36.864-37.837s36.864 16.384 36.864 37.837v271.104c0 7.526 6.144 13.824 13.517 13.824h314.571c3.615-0.080 7.055-1.572 9.58-4.156s3.942-6.054 3.937-9.668v-35.328c0-2.56 0-10.086 1.229-17.664v-218.112c0-21.453 15.974-37.837 36.864-37.837s36.864 16.384 36.864 37.837v74.394c122.88-69.325 149.914-142.49 149.914-308.89v-166.707c0-11.366 2.458-21.453 6.144-31.539h-609.483c-20.89 0-36.864-16.384-36.864-37.786s15.974-37.837 36.864-37.837h674.609v-78.182h-1007.614v95.846z" />
<glyph unicode="&#xce902;" glyph-name="check" d="M930.909 448c0 111.102-44.134 217.653-122.694 296.213-78.564 78.561-185.116 122.696-296.215 122.696-111.102 0-217.653-44.135-296.213-122.696s-122.696-185.112-122.696-296.213c0-111.099 44.135-217.651 122.696-296.215 78.561-78.559 185.112-122.694 296.213-122.694 111.099 0 217.651 44.134 296.215 122.694 78.559 78.564 122.694 185.116 122.694 296.215zM1024 448c0-282.764-229.236-512-512-512s-512 229.236-512 512c0 282.764 229.236 512 512 512s512-229.236 512-512zM442.182 215.273l349.091 349.091-69.818 69.818-279.273-279.273-139.636 139.636-69.818-69.818 209.455-209.455z" />
</font>
</defs>
</svg>
